<svg width="464" height="473" viewBox="0 0 464 473" fill="none" xmlns="http://www.w3.org/2000/svg">
<path d="M177.878 143.796C183.846 123.806 212.154 123.806 218.122 143.796L235.308 201.359C238.018 210.434 246.466 216.572 255.935 216.345L315.991 214.902C336.847 214.4 345.594 241.323 328.427 253.176L278.993 287.309C271.199 292.69 267.971 302.623 271.114 311.557L291.045 368.228C297.966 387.908 275.064 404.547 258.486 391.883L210.748 355.415C203.222 349.666 192.778 349.666 185.252 355.415L137.514 391.883C120.936 404.547 98.0338 387.908 104.955 368.228L124.886 311.557C128.029 302.623 124.801 292.69 117.007 287.309L67.5728 253.176C50.4056 241.323 59.1534 214.4 80.0091 214.902L140.065 216.345C149.534 216.572 157.982 210.434 160.692 201.359L177.878 143.796Z" fill="url(#paint0_linear_34_2)"/>
<path d="M330.544 57.0818C336.099 45.4231 353.414 48.1196 355.161 60.9154L359.482 92.5796C360.275 98.3888 364.858 102.948 370.672 103.711L402.358 107.869C415.163 109.549 417.949 126.85 406.319 132.465L377.54 146.36C372.26 148.909 369.34 154.677 370.411 160.441L376.249 191.862C378.608 204.559 363.014 212.555 354.08 203.229L331.972 180.153C327.916 175.919 321.528 174.924 316.377 177.724L288.298 192.985C276.952 199.153 264.528 186.793 270.636 175.415L285.752 147.258C288.525 142.092 287.497 135.709 283.242 131.675L260.051 109.687C250.68 100.801 258.595 85.1666 271.304 87.4598L302.754 93.1345C308.524 94.1755 314.277 91.2256 316.799 85.9325L330.544 57.0818Z" fill="url(#paint1_linear_34_2)"/>
<defs>
<linearGradient id="paint0_linear_34_2" x1="198" y1="76.397" x2="198" y2="472.397" gradientUnits="userSpaceOnUse">
<stop stop-color="#42E2C7"/>
<stop offset="0.5" stop-color="#4DCCD0"/>
<stop offset="1" stop-color="#37ACFF"/>
</linearGradient>
<linearGradient id="paint1_linear_34_2" x1="349.272" y1="17.7724" x2="313.728" y2="246.021" gradientUnits="userSpaceOnUse">
<stop stop-color="#42E2C7"/>
<stop offset="1" stop-color="#4DCCD0"/>
</linearGradient>
</defs>
</svg>
